<svg id="Layer_1" data-name="Layer 1" xmlns="http://www.w3.org/2000/svg" viewBox="0 0 218 61.49"><defs><style>.cls-1{fill:#fff;}</style></defs><title>Logo_test_dome</title><path class="cls-1" d="M83.26,49.18l-.58-1.59H80.47l-.57,1.59h-1l2.16-5.74h1l2.16,5.74Zm-.83-2.39-.54-1.56q-.06-.16-.16-.49t-.14-.49a8.74,8.74,0,0,1-.31,1.05l-.52,1.49Z"/><path class="cls-1" d="M90.4,43.46v3.7a2.18,2.18,0,0,1-.27,1.11,1.82,1.82,0,0,1-.8.73,2.78,2.78,0,0,1-1.24.26,2.34,2.34,0,0,1-1.67-.56,2,2,0,0,1-.6-1.55V43.46h.95v3.62a1.44,1.44,0,0,0,.33,1,1.38,1.38,0,0,0,1,.34q1.34,0,1.34-1.39V43.46Z"/><path class="cls-1" d="M94.72,49.18h-.94V44.26h-1.7v-.8h4.34v.8h-1.7Z"/><path class="cls-1" d="M103.29,46.31a3.11,3.11,0,0,1-.71,2.17,3,3,0,0,1-4,0,3.13,3.13,0,0,1-.7-2.19,3.08,3.08,0,0,1,.71-2.18,2.61,2.61,0,0,1,2-.76,2.56,2.56,0,0,1,2,.77A3.11,3.11,0,0,1,103.29,46.31Zm-4.41,0a2.55,2.55,0,0,0,.43,1.6,1.76,1.76,0,0,0,2.55,0,3.22,3.22,0,0,0,0-3.2,1.51,1.51,0,0,0-1.27-.54,1.54,1.54,0,0,0-1.28.54A2.53,2.53,0,0,0,98.88,46.31Z"/><path class="cls-1" d="M107.87,49.18,106.2,44.4h0q.07,1.06.07,2v2.78h-.86V43.46h1.33l1.6,4.55h0L110,43.46h1.34v5.72h-.91V46.35q0-.43,0-1.11t0-.83h0l-1.73,4.77Z"/><path class="cls-1" d="M117.28,49.18l-.58-1.59h-2.21l-.57,1.59h-1l2.16-5.74h1l2.16,5.74Zm-.83-2.39-.54-1.56q-.06-.16-.16-.49t-.14-.49a8.74,8.74,0,0,1-.31,1.05l-.52,1.49Z"/><path class="cls-1" d="M121.89,49.18h-.94V44.26h-1.7v-.8h4.34v.8h-1.7Z"/><path class="cls-1" d="M128.59,49.18h-3.27V43.46h3.27v.79h-2.32v1.56h2.18v.78h-2.18v1.8h2.32Z"/><path class="cls-1" d="M135.39,46.27a2.84,2.84,0,0,1-.79,2.17,3.21,3.21,0,0,1-2.29.75h-1.62V43.46h1.79a3,3,0,0,1,2.15.74A2.73,2.73,0,0,1,135.39,46.27Zm-1,0q0-2.05-1.94-2.05h-.82v4.15h.67A1.85,1.85,0,0,0,134.39,46.3Z"/><path class="cls-1" d="M143.76,47.63a1.43,1.43,0,0,1-.56,1.2,2.44,2.44,0,0,1-1.54.43,3.7,3.7,0,0,1-1.6-.3v-.88a4.41,4.41,0,0,0,.84.29,3.6,3.6,0,0,0,.83.11,1.33,1.33,0,0,0,.83-.21.69.69,0,0,0,.27-.57.71.71,0,0,0-.24-.54,3.7,3.7,0,0,0-1-.53,2.68,2.68,0,0,1-1.11-.72,1.52,1.52,0,0,1-.32-1,1.37,1.37,0,0,1,.51-1.13,2.15,2.15,0,0,1,1.38-.41,4.09,4.09,0,0,1,1.65.36l-.3.76a3.64,3.64,0,0,0-1.38-.32,1.06,1.06,0,0,0-.7.2.65.65,0,0,0-.24.52.73.73,0,0,0,.09.38,1,1,0,0,0,.31.3,5.26,5.26,0,0,0,.78.37,4.29,4.29,0,0,1,.93.49,1.44,1.44,0,0,1,.43.51A1.53,1.53,0,0,1,143.76,47.63Z"/><path class="cls-1" d="M150.14,49.18H149l-1.81-2.59-.56.45v2.14h-.94V43.46h.94v2.73l.77-.9L149,43.46h1.07L147.91,46Z"/><path class="cls-1" d="M151.75,49.18V43.46h.94v5.72Z"/><path class="cls-1" d="M155.07,49.18V43.46H156v4.92h2.45v.8Z"/><path class="cls-1" d="M160.31,49.18V43.46h.94v4.92h2.45v.8Z"/><path class="cls-1" d="M170.49,49.18h-.94V44.26h-1.7v-.8h4.34v.8h-1.7Z"/><path class="cls-1" d="M177.19,49.18h-3.27V43.46h3.27v.79h-2.32v1.56H177v.78h-2.18v1.8h2.32Z"/><path class="cls-1" d="M182.62,47.63a1.43,1.43,0,0,1-.56,1.2,2.44,2.44,0,0,1-1.54.43,3.7,3.7,0,0,1-1.6-.3v-.88a4.41,4.41,0,0,0,.84.29,3.6,3.6,0,0,0,.83.11,1.33,1.33,0,0,0,.83-.21.69.69,0,0,0,.27-.57.71.71,0,0,0-.24-.54,3.7,3.7,0,0,0-1-.53,2.68,2.68,0,0,1-1.11-.72,1.52,1.52,0,0,1-.32-1,1.37,1.37,0,0,1,.51-1.13,2.15,2.15,0,0,1,1.38-.41,4.09,4.09,0,0,1,1.65.36l-.3.76a3.64,3.64,0,0,0-1.38-.32,1.06,1.06,0,0,0-.7.2.65.65,0,0,0-.24.52.73.73,0,0,0,.09.38,1,1,0,0,0,.31.3,5.26,5.26,0,0,0,.78.37,4.29,4.29,0,0,1,.93.49,1.44,1.44,0,0,1,.43.51A1.53,1.53,0,0,1,182.62,47.63Z"/><path class="cls-1" d="M186.59,49.18h-.94V44.26h-1.7v-.8h4.34v.8h-1.7Z"/><path class="cls-1" d="M190,49.18V43.46H191v5.72Z"/><path class="cls-1" d="M198.15,49.18H197l-2.84-4.56h0l0,.25q.06.73.06,1.33v3h-.86V43.46h1.15L197.32,48h0q0-.09,0-.66t0-.88v-3h.87Z"/><path class="cls-1" d="M202.89,46.08H205v2.87a6.21,6.21,0,0,1-1,.24,7.17,7.17,0,0,1-1,.07,2.62,2.62,0,0,1-2-.77,3.08,3.08,0,0,1-.71-2.17,2.88,2.88,0,0,1,.8-2.16,3,3,0,0,1,2.21-.78,4.34,4.34,0,0,1,1.71.34l-.33.78a3.36,3.36,0,0,0-1.41-.32,1.9,1.9,0,0,0-1.46.58,2.21,2.21,0,0,0-.54,1.57,2.33,2.33,0,0,0,.48,1.59,1.76,1.76,0,0,0,1.39.55,4.63,4.63,0,0,0,1-.11V46.88h-1.2Z"/><path class="cls-1" d="M47.61,45.44a2,2,0,0,1,0-.21c.1-1-.45-2.24.24-2.84s1.84-.38,2.8-.49a91.89,91.89,0,0,0,9.73-1.73c.53-.12.72-.29.69-.92A22.7,22.7,0,0,0,41.51,17.94a23,23,0,0,0-26.4,20c-.22,2.05-.22,2,1.78,2.49A79.71,79.71,0,0,0,27.5,42.11c.75.06,1.06.32,1,1.12-.06,1.56,0,3.13,0,4.7,0,.48,0,.79-.7.72A99.65,99.65,0,0,1,12,45.87a4.18,4.18,0,0,1-3.5-4.26C7.69,27.86,17.79,14.85,31.41,12A29.8,29.8,0,0,1,64.58,27.42a27.23,27.23,0,0,1,3,11.79,15.7,15.7,0,0,1-.05,3.08,4,4,0,0,1-3,3.44,88.06,88.06,0,0,1-13.18,2.57c-1,.12-1.94.14-2.89.32-.68.12-.92,0-.88-.71S47.61,46.26,47.61,45.44Z"/><path class="cls-1" d="M41.34,39.93c0,2.78,0,5.55,0,8.33,0,.75-.29.88-1,.87-1.54,0-3.09-.06-4.64,0-.86,0-1-.31-1-1.05,0-5.37,0-10.75,0-16.12,0-1.4,0-1.41-1.24-.79a9.86,9.86,0,0,0-4.62,4.74c-.24.51-.49.7-1,.62-1.67-.24-3.34-.45-5-.64-.75-.09-.71-.43-.52-1a16.65,16.65,0,0,1,31.41-.17c.32.9.18,1.16-.78,1.23-1.43.11-2.85.33-4.27.56A1.29,1.29,0,0,1,47,35.65,9.53,9.53,0,0,0,42.31,31c-.7-.34-1-.32-1,.59C41.37,34.38,41.34,37.16,41.34,39.93Z"/><polygon class="cls-1" points="80.73 18.86 80.73 31.96 84.45 31.96 84.45 18.86 88.5 18.86 88.5 15.43 76.84 15.43 76.84 18.79 80.73 18.86"/><polygon class="cls-1" points="125.52 18.86 125.52 31.96 129.24 31.96 129.24 18.86 133.29 18.86 133.29 15.43 121.64 15.43 121.64 18.79 125.52 18.86"/><polygon class="cls-1" points="92.71 15.43 103.46 15.43 103.46 19.03 96.35 19.03 96.35 21.97 102.38 21.97 102.38 25.33 96.43 25.33 96.43 28.6 103.46 28.6 103.46 31.96 92.71 31.96 92.71 15.43"/><polygon class="cls-1" points="197.76 15.43 208.5 15.43 208.5 19.03 201.39 19.03 201.39 21.97 207.43 21.97 207.43 25.33 201.47 25.33 201.47 28.6 208.5 28.6 208.5 31.96 197.76 31.96 197.76 15.43"/><path class="cls-1" d="M163.54,15.18a8.51,8.51,0,1,0,8.6,8.51A8.55,8.55,0,0,0,163.54,15.18Zm0,13.33a4.82,4.82,0,1,1,4.87-4.82A4.85,4.85,0,0,1,163.54,28.51Z"/><path class="cls-1" d="M116.35,20l1.9-2.54s-2.81-2-5.12-2c-3,0-5.45,1.31-5.54,4.58s2.89,4.34,5.33,5.32,2.27,3.76,0,3.68A10.7,10.7,0,0,1,109,27.54l-1.41,2.62a7.85,7.85,0,0,0,5.33,2c4.92,0,5.91-3.35,5.83-5.16s-1.82-3.68-4-4.58-4.13-2.29-3.39-3.27a1.82,1.82,0,0,1,2.4-.57C114.53,18.95,116.35,20,116.35,20Z"/><path class="cls-1" d="M142.74,15.43h-5.24V32.2h5.79c2.48,0,8.51-2.54,8.51-8.51S146.66,15.43,142.74,15.43Zm1,13.09H141V18.86h2.64A4.36,4.36,0,0,1,148,23.12C148,27.13,145.77,28.52,143.7,28.52Z"/><path class="cls-1" d="M174.58,32s2.93-16.44,3.11-16.62a.76.76,0,0,1,1,.34c.22.48,5.47,9.87,5.47,9.87s5.25-9.27,5.51-9.87.83-.39,1,.13S193.52,32,193.52,32h-3.63l-1.14-7.54S185,32,184.78,32s-1.22.12-1.36-.09-4-7.4-4-7.4l-1,7.49Z"/></svg>